
<svg width="24px" height="24px" viewBox="0 0 24 24" version="1.1" xmlns="http://www.w3.org/2000/svg" xmlns:xlink="http://www.w3.org/1999/xlink">
    <g id="Page-2" stroke="none" stroke-width="1" fill="none" fill-rule="evenodd">
        <g id="8d.-Website---Dashboard---Quản-lý-thông-tin---Thêm-ngân-hàng-" transform="translate(-684.000000, -459.000000)">
            <g id="Group-5" transform="translate(322.000000, 283.000000)">
                <g id="ic-structure-" transform="translate(362.000000, 176.000000)">
                    <g>
                        <rect id="Bound" fill-opacity="0.01" fill="#FFFFFF" style="mix-blend-mode: darken;" x="0" y="0" width="24" height="24"></rect>
                        <path d="M19.7021277,15.6170213 C19.1331489,15.6170213 18.6186809,15.834766 18.2199149,16.182 L15.1104255,13.8041277 C15.4241277,13.2672766 15.6170213,12.6511915 15.6170213,11.9858298 C15.6170213,11.3465957 15.4366809,10.7542979 15.1454468,10.232 L17.2771064,8.66851064 C17.6800426,9.03365957 18.2090638,9.26242553 18.7943404,9.26242553 C20.0456596,9.26242553 21.0638298,8.24425532 21.0638298,6.99293617 C21.0638298,5.74161702 20.0456596,4.72340426 18.7943404,4.72340426 C17.5430213,4.72340426 16.5248511,5.74157447 16.5248511,6.99289362 C16.5248511,7.33110638 16.6042553,7.6493617 16.7374894,7.938 L14.6147234,9.49502128 C13.9524681,8.79638298 13.0221277,8.3546383 11.9858298,8.3546383 C11.6965532,8.3546383 11.4187234,8.3973617 11.1488511,8.46157447 L10.6260851,7.06702128 C11.4351064,6.59434043 11.9858298,5.72617021 11.9858298,4.72344681 C11.9858298,3.22165957 10.7642128,2.00004255 9.26242553,2.00004255 C7.7606383,2.00004255 6.53902128,3.22165957 6.53902128,4.72344681 C6.53902128,6.22523404 7.7606383,7.44685106 9.26242553,7.44685106 C9.43944681,7.44685106 9.61165957,7.42702128 9.7793617,7.39459574 L10.3017872,8.78825532 C9.33834043,9.29812766 8.62757447,10.2164681 8.42178723,11.3214894 L6.50629787,11.2090638 C6.34782979,10.1114468 5.41029787,9.26242553 4.26948936,9.26242553 C3.01817021,9.26242553 2,10.2805957 2,11.5319149 C2,12.783234 3.01817021,13.8014043 4.26948936,13.8014043 C5.31795745,13.8014043 6.19412766,13.0829362 6.45344681,12.1150638 L8.37910638,12.2280851 C8.44148936,13.1521277 8.83825532,13.9831915 9.46544681,14.5902128 L7.77982979,16.8378298 C7.406,16.6444681 6.98821277,16.524766 6.53902128,16.524766 C5.03723404,16.524766 3.81561702,17.746383 3.81561702,19.2481702 C3.81561702,20.7499574 5.03723404,21.9715745 6.53902128,21.9715745 C8.04080851,21.9715745 9.26242553,20.7499574 9.26242553,19.2481702 C9.26242553,18.5227234 8.97302128,17.8665957 8.50906383,17.378 L10.1974468,15.1266809 C10.7276596,15.4298723 11.3325957,15.6169787 11.9858298,15.6169787 C12.9962553,15.6169787 13.9098298,15.2005532 14.5687234,14.5322553 L17.6669787,16.9014894 C17.5214894,17.2006383 17.4326383,17.5320851 17.4326383,17.8864681 C17.4326383,19.1377872 18.4508085,20.1559574 19.7021277,20.1559574 C20.9534468,20.1559574 21.971617,19.1377872 21.971617,17.8864681 C21.971617,16.6351489 20.9534468,15.6170213 19.7021277,15.6170213 Z M18.7943404,5.63119149 C19.545234,5.63119149 20.1560426,6.242 20.1560426,6.99289362 C20.1560426,7.74378723 19.545234,8.35459574 18.7943404,8.35459574 C18.0434468,8.35459574 17.4326383,7.74378723 17.4326383,6.99289362 C17.4326383,6.242 18.0434468,5.63119149 18.7943404,5.63119149 Z M4.26948936,12.893617 C3.51859574,12.893617 2.90778723,12.2828085 2.90778723,11.5319149 C2.90778723,10.7810213 3.51859574,10.1702128 4.26948936,10.1702128 C5.02038298,10.1702128 5.63119149,10.7810213 5.63119149,11.5319149 C5.63119149,12.2828085 5.02038298,12.893617 4.26948936,12.893617 Z M6.53902128,21.0638298 C5.53765957,21.0638298 4.72340426,20.2495745 4.72340426,19.2482128 C4.72340426,18.2468511 5.53765957,17.4325957 6.53902128,17.4325957 C7.54038298,17.4325957 8.3546383,18.2468511 8.3546383,19.2482128 C8.3546383,20.2495745 7.54034043,21.0638298 6.53902128,21.0638298 Z M9.26242553,6.53902128 C8.26106383,6.53902128 7.44680851,5.7247234 7.44680851,4.72340426 C7.44680851,3.72208511 8.26106383,2.90778723 9.26242553,2.90778723 C10.2637872,2.90778723 11.078,3.72208511 11.078,4.72340426 C11.078,5.7247234 10.2637447,6.53902128 9.26242553,6.53902128 Z M11.9858298,14.709234 C10.4840426,14.709234 9.26242553,13.487617 9.26242553,11.9858298 C9.26242553,10.4840426 10.4840426,9.26242553 11.9858298,9.26242553 C13.487617,9.26242553 14.709234,10.4840426 14.709234,11.9858298 C14.709234,13.487617 13.4875745,14.709234 11.9858298,14.709234 Z M19.7021277,19.2482128 C18.951234,19.2482128 18.3404255,18.6374043 18.3404255,17.8865106 C18.3404255,17.135617 18.951234,16.5248085 19.7021277,16.5248085 C20.4530213,16.5248085 21.0638298,17.135617 21.0638298,17.8865106 C21.0638298,18.6374043 20.4530213,19.2482128 19.7021277,19.2482128 Z" id="Shape" stroke="#7E90A1" stroke-width="0.5" fill="#7E90A1" fill-rule="nonzero"></path>
                    </g>
                </g>
            </g>
        </g>
    </g>
</svg>